<svg width="69" height="69" viewBox="0 0 69 69" fill="none" xmlns="http://www.w3.org/2000/svg">
<g id="cita-izquierda (1) 1">
<g id="Group">
<path id="Vector" d="M27.72 16.16C29.4456 15.4364 30.1692 13.3769 29.3899 11.707L26.6624 5.97376C25.8831 4.3601 23.9906 3.63593 22.3207 4.3601C17.5894 6.36395 13.526 8.9801 10.2976 12.1529C6.34554 15.8817 3.67374 20.1677 2.22651 24.8991C0.779277 29.6866 0 36.1986 0 44.4923V61.5808C0 63.4176 1.50289 64.9205 3.33976 64.9205H25.2152C27.0521 64.9205 28.5549 63.4176 28.5549 61.5808V39.7053C28.5549 37.8679 27.0521 36.3656 25.2152 36.3656H14.7506C14.8619 30.7431 16.1978 26.235 18.647 22.839C20.6508 20.1126 23.6566 17.8861 27.72 16.16Z" fill="#252525"/>
<path id="Vector_2" d="M67.0179 16.16C68.7434 15.4364 69.4665 13.3769 68.6877 11.707L65.9603 6.02998C65.181 4.41576 63.2885 3.69214 61.6186 4.41576C56.9429 6.41961 52.9347 9.03576 49.6511 12.1529C45.6985 15.9379 42.9716 20.224 41.5238 24.9553C40.0766 29.6304 39.3535 36.1435 39.3535 44.4929V61.5813C39.3535 63.4182 40.8564 64.9211 42.6933 64.9211H64.5687C66.4056 64.9211 67.9085 63.4182 67.9085 61.5813V39.7059C67.9085 37.8685 66.4056 36.3661 64.5687 36.3661H54.0485C54.1598 30.7436 55.4962 26.2355 57.9448 22.8395C59.9487 20.1126 62.9545 17.8861 67.0179 16.16Z" fill="#252525"/>
</g>
</g>
</svg>
