<svg width="226" height="281" viewBox="0 0 226 281" fill="none" xmlns="http://www.w3.org/2000/svg">
<g clip-path="url(#clip0_1611_596)">
<path d="M113 0C112.063 0 111.165 0.370066 110.503 1.02879C109.841 1.68751 109.469 2.58093 109.469 3.5125C109.469 4.44407 109.841 5.33749 110.503 5.99621C111.165 6.65493 112.063 7.025 113 7.025C141.087 7.05666 168.014 18.1688 187.874 37.9236C207.734 57.6784 218.906 84.4625 218.938 112.4C218.938 113.332 219.31 114.225 219.972 114.884C220.634 115.542 221.532 115.913 222.469 115.913C223.405 115.913 224.304 115.542 224.966 114.884C225.628 114.225 226 113.332 226 112.4C225.966 82.6 214.05 54.0303 192.866 32.9585C171.681 11.8868 142.959 0.0337933 113 0V0Z" fill="#706E6B"/>
<path d="M113.38 154.55H119.682C119.929 154.068 120.059 153.535 120.062 152.994V129.762C120.059 127.021 118.963 124.394 117.015 122.456C115.066 120.518 112.425 119.428 109.67 119.425H82.9844V107.29C82.9783 104.451 81.8404 101.731 79.8205 99.7257C77.8005 97.7205 75.0634 96.5941 72.2096 96.5938H30.1967C27.3429 96.5941 24.6057 97.7205 22.5858 99.7257C20.5658 101.731 19.428 104.451 19.4219 107.29V112.4H17.6563C14.8476 112.403 12.1548 113.514 10.1687 115.49C8.18267 117.465 7.06557 120.144 7.0625 122.938V154.55H14.125V122.938C14.1261 122.006 14.4985 121.113 15.1605 120.455C15.8225 119.796 16.72 119.426 17.6563 119.425H52.9688C53.905 119.426 54.8025 119.796 55.4645 120.455C56.1265 121.113 56.4989 122.006 56.5 122.938V154.55H63.5625V122.938C63.5594 120.144 62.4423 117.465 60.4563 115.49C58.4702 113.514 55.7774 112.403 52.9688 112.4H26.4844V107.29C26.4883 106.314 26.8814 105.379 27.5774 104.691C28.2733 104.003 29.2153 103.617 30.1967 103.619H72.2096C73.1909 103.617 74.1329 104.003 74.8289 104.691C75.5248 105.379 75.9179 106.314 75.9219 107.29V120.763C74.3165 121.662 72.98 122.968 72.0493 124.55C71.1186 126.131 70.6271 127.93 70.625 129.762V154.55H77.6875V129.762C77.6886 128.884 78.0398 128.042 78.6642 127.421C79.2885 126.8 80.135 126.451 81.0179 126.45H109.67C110.552 126.451 111.399 126.8 112.023 127.421C112.648 128.042 112.999 128.884 113 129.762V152.994C113.003 153.535 113.134 154.068 113.38 154.55V154.55Z" fill="#706E6B"/>
<path d="M215.406 0C213.311 0 211.263 0.618014 209.521 1.77589C207.779 2.93376 206.421 4.5795 205.619 6.50497C204.817 8.43045 204.607 10.5492 205.016 12.5933C205.425 14.6373 206.434 16.5149 207.915 17.9886C209.397 19.4623 211.285 20.4659 213.34 20.8725C215.395 21.2791 217.525 21.0704 219.46 20.2729C221.396 19.4753 223.051 18.1247 224.215 16.3918C225.379 14.6589 226 12.6216 226 10.5375C225.997 7.74372 224.88 5.06523 222.894 3.08973C220.908 1.11423 218.215 0.00304954 215.406 0V0ZM215.406 14.05C214.708 14.05 214.025 13.844 213.444 13.458C212.864 13.0721 212.411 12.5235 212.144 11.8817C211.877 11.2398 211.807 10.5336 211.943 9.85224C212.079 9.17089 212.415 8.54502 212.909 8.05379C213.403 7.56255 214.032 7.22802 214.717 7.09249C215.402 6.95696 216.112 7.02652 216.758 7.29237C217.403 7.55823 217.954 8.00843 218.342 8.58606C218.73 9.16369 218.938 9.84279 218.938 10.5375C218.937 11.4688 218.564 12.3617 217.902 13.0202C217.24 13.6787 216.343 14.0491 215.406 14.05Z" fill="#706E6B"/>
<path d="M19.3665 57.097V3.5125C19.3665 2.58093 18.9945 1.68751 18.3323 1.02879C17.67 0.370066 16.7718 0 15.8353 0C14.8988 0 14.0006 0.370066 13.3383 1.02879C12.6761 1.68751 12.304 2.58093 12.304 3.5125V53.5845H3.5311C2.88796 53.5844 2.25701 53.7591 1.70638 54.0897C1.15574 54.4202 0.706335 54.8941 0.406673 55.4601C0.10701 56.0262 -0.0315245 56.6629 0.00602323 57.3015C0.0435709 57.9402 0.255775 58.5565 0.619727 59.0839L21.8072 89.7994C22.1315 90.2698 22.566 90.6545 23.0733 90.9203C23.5805 91.1861 24.1453 91.325 24.7186 91.325C25.292 91.325 25.8567 91.1861 26.3639 90.9203C26.8712 90.6545 27.3057 90.2698 27.63 89.7994L48.8175 59.0839C49.1814 58.5565 49.3936 57.9402 49.4312 57.3015C49.4687 56.6629 49.3302 56.0262 49.0305 55.4601C48.7309 54.8941 48.2815 54.4202 47.7308 54.0896C47.1802 53.7591 46.5492 53.5844 45.9061 53.5845H37.0228V20.4799C37.0228 19.5483 36.6508 18.6549 35.9885 17.9961C35.3263 17.3374 34.4281 16.9674 33.4915 16.9674C32.555 16.9674 31.6568 17.3374 30.9946 17.9961C30.3323 18.6549 29.9603 19.5483 29.9603 20.4799V57.097C29.9603 58.0285 30.3324 58.9219 30.9946 59.5806C31.6569 60.2394 32.555 60.6094 33.4915 60.6095H39.2005L24.7186 81.6039L10.2367 60.6095H15.8353C16.7718 60.6094 17.67 60.2394 18.3322 59.5806C18.9944 58.9219 19.3665 58.0285 19.3665 57.097Z" fill="#706E6B"/>
<path d="M207.764 178.289C208.222 177.352 208.41 176.308 208.307 175.272C208.204 174.236 207.814 173.249 207.182 172.419L190.272 153.639C189.347 152.366 188.148 151.314 186.763 150.56C185.378 149.806 183.84 149.369 182.264 149.281H172.72C170.843 149.376 169.08 150.205 167.815 151.588C166.55 152.971 165.886 154.795 165.969 156.663V173.512C165.886 175.38 166.55 177.204 167.815 178.587C169.08 179.97 170.843 180.799 172.72 180.894H203.026C203.98 180.932 204.926 180.71 205.762 180.25C206.597 179.791 207.29 179.112 207.764 178.289V178.289ZM173.09 173.869C173.05 173.754 173.03 173.633 173.031 173.512V156.663C173.03 156.542 173.05 156.421 173.09 156.306H182.264C183.175 156.501 183.986 157.015 184.547 157.756L199.047 173.869H173.09Z" fill="#706E6B"/>
<path d="M42.375 179.137H28.25C27.3135 179.137 26.4153 179.508 25.753 180.166C25.0908 180.825 24.7188 181.718 24.7188 182.65C24.7188 183.582 25.0908 184.475 25.753 185.134C26.4153 185.792 27.3135 186.162 28.25 186.162H42.375C43.3115 186.162 44.2097 185.792 44.872 185.134C45.5342 184.475 45.9062 183.582 45.9062 182.65C45.9062 181.718 45.5342 180.825 44.872 180.166C44.2097 179.508 43.3115 179.137 42.375 179.137Z" fill="#706E6B"/>
<path d="M107.703 182.65C107.703 181.718 107.331 180.825 106.669 180.166C106.007 179.508 105.108 179.137 104.172 179.137H90.0469C89.1103 179.137 88.2121 179.508 87.5499 180.166C86.8877 180.825 86.5156 181.718 86.5156 182.65C86.5156 183.582 86.8877 184.475 87.5499 185.134C88.2121 185.792 89.1103 186.162 90.0469 186.162H104.172C105.108 186.162 106.007 185.792 106.669 185.134C107.331 184.475 107.703 183.582 107.703 182.65V182.65Z" fill="#706E6B"/>
<path d="M187.156 193.188C184.013 193.188 180.941 194.115 178.328 195.851C175.715 197.588 173.678 200.057 172.475 202.945C171.273 205.833 170.958 209.011 171.571 212.077C172.184 215.144 173.698 217.96 175.92 220.17C178.142 222.381 180.974 223.886 184.056 224.496C187.139 225.106 190.334 224.793 193.237 223.597C196.141 222.4 198.623 220.375 200.369 217.775C202.115 215.176 203.047 212.12 203.047 208.994C203.047 204.802 201.373 200.781 198.392 197.817C195.412 194.853 191.371 193.188 187.156 193.188V193.188ZM187.156 217.775C185.41 217.775 183.703 217.26 182.252 216.295C180.8 215.33 179.668 213.959 179 212.354C178.332 210.75 178.157 208.984 178.498 207.281C178.838 205.577 179.679 204.013 180.914 202.784C182.148 201.556 183.721 200.72 185.434 200.381C187.146 200.042 188.922 200.216 190.535 200.881C192.148 201.546 193.527 202.671 194.497 204.115C195.467 205.559 195.984 207.257 195.984 208.994C195.982 211.322 195.051 213.554 193.396 215.2C191.741 216.846 189.497 217.772 187.156 217.775V217.775Z" fill="#706E6B"/>
<path d="M203.702 129.822L208.952 136.113C214.152 115.364 212.407 93.4943 203.983 73.8208C195.558 54.1474 180.913 37.7435 162.269 27.0972C143.625 16.4509 121.998 12.1432 100.671 14.8273C79.3426 17.5114 59.4765 27.041 44.0854 41.9706V46.5594H45.9062C46.949 46.5631 47.9854 46.7204 48.9818 47.0261C51.6108 44.4899 54.3885 42.1107 57.3004 39.9011C57.8729 41.5541 58.2571 43.2657 58.4458 45.0038C58.5225 45.5244 58.5941 46.0115 58.6674 46.4436C59.2819 48.9156 59.2919 51.498 58.6967 53.9746C58.2522 55.2455 57.4885 56.3823 56.4781 57.277C56.4503 59.3419 55.8114 61.3528 54.6413 63.0586L51.0302 68.2937C51.7277 67.9602 52.4386 67.6291 53.1748 67.2905C53.8292 66.9895 54.4887 66.6868 55.1499 66.3738C58.6001 64.7436 63.4134 61.9223 65.3738 56.2633C66.3911 52.6821 66.4798 48.9028 65.6316 45.2782C65.5661 44.8915 65.5032 44.4558 65.435 43.991C65.21 41.139 64.4046 38.3621 63.0679 35.829C74.6266 28.3329 87.7453 23.5447 101.435 21.8253C101.504 22.6049 101.532 23.3874 101.52 24.1699L101.518 24.7204C101.535 27.5332 101.457 29.4506 100.266 30.4291C99.0887 31.2453 97.7931 31.8775 96.4239 32.3037C95.5816 32.6227 94.7428 32.9417 93.941 33.307C89.9186 34.9163 86.2236 37.2391 83.0361 40.1622C80.4385 42.8052 79.7005 45.4335 80.8428 47.9744C81.2019 48.7731 81.8477 49.4096 82.6538 49.7596C83.4599 50.1095 84.3683 50.1477 85.2012 49.8666C86.0341 49.5854 86.7315 49.0053 87.157 48.2396C87.5825 47.4739 87.7055 46.5779 87.5018 45.7268C87.6831 45.4984 87.8777 45.2808 88.0846 45.0751C90.6813 42.7889 93.6573 40.9684 96.88 39.6949C97.543 39.393 98.2361 39.134 98.9318 38.8716C101.031 38.1945 103.001 37.1722 104.761 35.847C108.628 32.6707 108.6 27.8616 108.581 24.6741L108.582 24.2196C108.601 23.2075 108.561 22.1952 108.462 21.1878C109.966 21.1144 111.478 21.0768 113 21.0749C120.58 21.0732 128.13 22.0067 135.479 23.854C133.861 25.64 132.705 27.7921 132.114 30.1232C131.522 32.4544 131.511 34.8941 132.083 37.2302C132.106 37.3263 132.137 37.4317 132.168 37.5253C132.854 39.2153 132.97 41.0806 132.5 42.842C132.235 42.9924 131.929 43.0546 131.625 43.0195C128.978 42.8111 111.517 41.873 110.204 52.3496L110.216 52.3514C110.183 52.551 110.161 52.7522 110.149 52.9542C109.92 56.8809 109.02 58.4631 108.535 59.0231C108.034 59.3725 107.504 59.6792 106.951 59.9398C105.224 60.652 103.726 61.8229 102.622 63.3245C101.742 64.7421 99.0638 69.0538 101.232 72.7567C103.737 77.0367 110.145 76.7983 118.254 76.4981C125.77 76.2194 135.129 75.8713 138.815 79.6659C139.568 80.5625 140.118 81.6094 140.429 82.7359C140.739 83.8624 140.803 85.0422 140.615 86.1952C140.472 87.0682 139.022 88.4789 134.498 88.2465L133.997 88.2208C124.173 87.7329 121.649 87.2346 121.017 87.0425C113.204 84.668 103.477 81.7138 93.3893 84.2924C88.5606 85.5751 84.172 88.1367 80.6911 91.7041C82.7953 92.8437 84.6487 94.3909 86.1421 96.2544C88.6464 93.7922 91.7477 92.0153 95.1455 91.0961C102.712 89.1641 110.093 91.0696 118.952 93.7605C120.98 94.378 125.511 94.8333 133.644 95.2372L134.131 95.2621C138.758 95.5005 142.354 94.5049 144.795 92.3027C146.422 90.8892 147.444 88.9103 147.652 86.7714C147.936 84.6215 147.748 82.4359 147.098 80.3658C146.449 78.2958 145.356 76.3908 143.893 74.7829C138.017 68.7355 127.378 69.1283 117.991 69.4781C114.491 69.6051 109.353 69.7954 107.554 69.1797C107.79 68.4668 108.117 67.7869 108.526 67.1568C109.055 66.7776 109.618 66.448 110.208 66.1723C111.571 65.5681 112.806 64.712 113.848 63.6494C116.796 60.2561 117.1 55.0671 117.199 53.3623L117.204 53.2783L117.213 53.2191C117.545 50.5659 125.571 49.5728 131.183 50.0316C131.261 50.0385 131.344 50.0419 131.423 50.0436C132.723 50.136 134.026 49.9031 135.212 49.3663C136.399 48.8294 137.431 48.0057 138.215 46.9702C141.108 43.0101 139.429 37.0107 138.915 35.4422C137.767 30.4014 141.873 27.189 143.338 26.2217C157.02 31.0205 169.37 38.9628 179.384 49.4031C189.399 59.8433 196.796 72.4869 200.973 86.3059C196.338 85.266 191.373 86.8995 187.883 88.0534C187.101 88.3115 186.123 88.6348 185.413 88.8244C182.26 85.791 178.094 84.0195 173.71 83.848C172.19 83.7689 170.671 84.0419 169.274 84.6455C167.877 85.2491 166.64 86.1668 165.66 87.3265C164.68 88.4862 163.984 89.8563 163.626 91.3289C163.269 92.8016 163.26 94.3366 163.6 95.8134C163.925 96.9807 164.386 98.1066 164.971 99.1689C165.257 99.7452 165.73 100.694 165.966 101.349C165.406 101.566 164.812 101.683 164.211 101.694C162.985 101.791 161.758 101.524 160.686 100.924C159.659 99.7291 158.31 98.8505 156.799 98.392C155.287 97.9335 153.675 97.9141 152.152 98.3362C150.885 98.8036 149.788 99.637 149.001 100.729C148.214 101.822 147.773 103.123 147.735 104.467C147.327 108.585 148.288 112.722 150.471 116.245C152.564 117.671 154.38 119.463 155.829 121.534C156.727 122.064 157.66 122.533 158.622 122.937H170.377C170.338 122.588 170.262 122.244 170.152 121.91C169.854 121.094 169.373 120.356 168.747 119.751C168.12 119.146 167.364 118.691 166.534 118.42C165.787 118.127 165.028 117.852 164.271 117.581C161.735 116.932 159.399 115.67 157.471 113.908C156.444 112.709 155.674 111.313 155.208 109.807C154.742 108.301 154.591 106.716 154.764 105.15C155.058 105.301 155.323 105.502 155.547 105.744C158.032 108.365 162.663 109.052 165.913 108.583C167.289 108.474 168.618 108.031 169.782 107.292C170.947 106.554 171.912 105.543 172.592 104.348C174.024 101.526 172.514 98.4913 171.301 96.0534C170.992 95.4744 170.721 94.8767 170.488 94.2638C170.389 93.8381 170.392 93.3954 170.497 92.9712C170.601 92.5469 170.804 92.1528 171.089 91.8206C171.357 91.4949 171.7 91.2379 172.089 91.0713C172.477 90.9046 172.9 90.8331 173.323 90.8627C174.708 90.8839 176.075 91.1848 177.34 91.7473C178.606 92.3099 179.743 93.1222 180.683 94.1351C182.855 97.1211 186.543 95.9016 190.111 94.7191C193.385 93.6369 197.867 92.155 200.554 93.558C201.364 94.0955 202.059 94.7882 202.597 95.5954C203.135 96.4027 203.506 97.3085 203.688 98.2599C203.697 98.2896 203.713 98.3148 203.723 98.344C205.331 108.617 205.158 119.088 203.21 129.302C203.371 129.478 203.551 129.641 203.702 129.822Z" fill="#706E6B"/>
<path d="M74.1563 193.188C71.0134 193.188 67.9411 194.115 65.3279 195.851C62.7147 197.588 60.678 200.057 59.4752 202.945C58.2725 205.833 57.9578 209.011 58.571 212.077C59.1841 215.144 60.6975 217.96 62.9199 220.17C65.1422 222.381 67.9737 223.886 71.0562 224.496C74.1386 225.106 77.3337 224.793 80.2373 223.597C83.141 222.4 85.6227 220.375 87.3688 217.775C89.1149 215.176 90.0469 212.12 90.0469 208.994C90.0467 204.802 88.3725 200.781 85.3924 197.817C82.4124 194.853 78.3707 193.188 74.1563 193.188V193.188ZM74.1563 217.775C72.4102 217.775 70.7034 217.26 69.2516 216.295C67.7998 215.33 66.6683 213.959 66.0001 212.354C65.332 210.75 65.1571 208.984 65.4978 207.281C65.8384 205.577 66.6792 204.013 67.9138 202.784C69.1485 201.556 70.7215 200.72 72.434 200.381C74.1465 200.042 75.9215 200.216 77.5346 200.881C79.1478 201.546 80.5265 202.671 81.4966 204.115C82.4666 205.559 82.9844 207.257 82.9844 208.994C82.9817 211.322 82.0508 213.554 80.3958 215.2C78.7407 216.846 76.4968 217.772 74.1563 217.775V217.775Z" fill="#706E6B"/>
<path d="M30.0156 207.238C29.0791 207.238 28.1809 207.608 27.5187 208.266C26.8564 208.925 26.4844 209.818 26.4844 210.75C26.4844 211.682 26.8564 212.575 27.5187 213.234C28.1809 213.892 29.0791 214.263 30.0156 214.263H51.8447C51.4249 212.537 51.2096 210.769 51.2031 208.994C51.2031 208.401 51.2477 207.819 51.2926 207.238H30.0156Z" fill="#706E6B"/>
<path d="M198.269 134.31C197.092 133 195.661 131.939 194.062 131.192C192.463 130.445 190.729 130.027 188.963 129.963H152.309C151.34 126.773 149.321 123.999 146.577 122.088C143.832 120.177 140.521 119.239 137.176 119.425H128.39C127.453 119.425 126.555 119.795 125.893 120.454C125.231 121.113 124.858 122.006 124.858 122.938C124.858 123.869 125.231 124.763 125.893 125.421C126.555 126.08 127.453 126.45 128.39 126.45H137.176C139.494 126.45 146.547 126.45 146.547 138.454V161.575H3.53125C2.5947 161.575 1.69652 161.945 1.03428 162.604C0.372041 163.263 0 164.156 0 165.088C0 166.019 0.372041 166.913 1.03428 167.571C1.69652 168.23 2.5947 168.6 3.53125 168.6H146.547V207.238H97.0199C97.0648 207.819 97.1094 208.401 97.1094 208.994C97.1029 210.769 96.8876 212.537 96.4677 214.263H164.845C164.425 212.537 164.21 210.769 164.203 208.994C164.203 208.401 164.248 207.819 164.293 207.238H153.609V138.454C153.609 137.952 153.583 137.472 153.561 136.988H188.963C190.426 137.125 191.795 137.765 192.835 138.797L217.184 167.977C218.2 169.4 218.807 171.072 218.937 172.812V206.749C218.937 206.878 218.886 207.002 218.794 207.094C218.702 207.185 218.578 207.237 218.448 207.238H210.02C210.065 207.819 210.109 208.401 210.109 208.994C210.103 210.769 209.888 212.537 209.468 214.263H218.448C220.45 214.26 222.37 213.468 223.786 212.059C225.202 210.65 225.998 208.741 226 206.749V172.812C225.88 169.43 224.698 166.17 222.619 163.491L198.269 134.31Z" fill="#706E6B"/>
</g>
<defs>
<clipPath id="clip0_1611_596">
<rect width="226" height="281" fill="white"/>
</clipPath>
</defs>
</svg>
